<svg width="509" height="243" viewBox="0 0 509 243" fill="none" xmlns="http://www.w3.org/2000/svg">
<g clip-path="url(#clip0)">
<path d="M419.5 151.5H383.1C378.1 151.5 374 155.6 374 160.6V233.5C374 238.5 378.1 242.6 383.1 242.6H419.5C424.5 242.6 428.6 238.5 428.6 233.5V160.6C428.6 155.6 424.5 151.5 419.5 151.5ZM424.1 233.5C424.1 236 422.1 238.1 419.5 238.1H383.1C380.6 238.1 378.5 236.1 378.5 233.5V160.6C378.5 158.1 380.5 156 383.1 156H419.5C422 156 424.1 158 424.1 160.6V233.5Z" fill="#004DF0"/>
<path d="M409.7 159.1H400.6C399.3 159.1 398.3 160.1 398.3 161.4C398.3 162.7 399.3 163.7 400.6 163.7H409.7C411 163.7 412 162.7 412 161.4C412 160.1 410.9 159.1 409.7 159.1Z" fill="#004DF0"/>
<path d="M401.3 235.1C403.84 235.1 405.9 233.041 405.9 230.5C405.9 227.959 403.84 225.9 401.3 225.9C398.759 225.9 396.7 227.959 396.7 230.5C396.7 233.041 398.759 235.1 401.3 235.1Z" fill="#004DF0"/>
<path d="M392.9 163.7C394.17 163.7 395.2 162.67 395.2 161.4C395.2 160.13 394.17 159.1 392.9 159.1C391.63 159.1 390.6 160.13 390.6 161.4C390.6 162.67 391.63 163.7 392.9 163.7Z" fill="#004DF0"/>
<path d="M36.6 137.2C29.8 137.2 24.1 136 19.5 133.7C14.8 131.4 11.1 128.2 8.30001 124.3C5.50001 120.3 3.40001 115.8 2.10001 110.7C0.800006 105.6 0.100006 100.3 0.100006 94.8V51.8H13.5V94.8C13.5 98.7 13.9 102.5 14.7 106.1C15.5 109.7 16.8 113 18.5 115.8C20.3 118.7 22.6 120.9 25.6 122.6C28.6 124.3 32.3 125.1 36.7 125.1C41.2 125.1 44.9 124.2 47.9 122.5C50.9 120.8 53.2 118.5 55 115.6C56.7 112.7 58 109.4 58.8 105.9C59.6 102.3 60 98.6 60 94.8V51.8H73.5V94.8C73.5 100.6 72.8 106.1 71.4 111.2C70 116.3 67.9 120.8 64.9 124.7C62 128.6 58.2 131.6 53.6 133.8C48.8 136.1 43.2 137.2 36.6 137.2Z" fill="#004DF0"/>
<path d="M189.8 133.6C188.7 134.2 187.3 134.8 185.6 135.4C183.9 136 182 136.6 179.9 137.1C177.8 137.6 175.6 137.8 173.4 137.8C170.7 137.8 168.2 137.3 165.9 136.4C163.6 135.4 161.7 133.9 160.3 131.8C158.9 129.7 158.2 127 158.2 123.6V84.8H150V74.6H158.2V54H171.3V74.6H185V84.8H171.4V119.5C171.6 121.6 172.3 123.2 173.5 124.3C174.7 125.3 176.3 125.8 178.1 125.8C179.9 125.8 181.7 125.5 183.4 124.8C185.1 124.2 186.3 123.6 187.1 123.2L189.8 133.6Z" fill="#004DF0"/>
<path d="M198.8 63.8V49.4H212V63.9H198.8V63.8ZM198.8 136.6V74.1H212V136.6H198.8Z" fill="#004DF0"/>
<path d="M323.4 136.6H310.3V102C310.3 96.3 309.3 92 307.4 89.4C305.5 86.7 302.7 85.4 299 85.4C295.3 85.4 291.9 86.8 288.8 89.5C285.7 92.2 283.4 95.7 282.2 100.1V136.7H269V102C269 96.3 268 92 266.1 89.4C264.2 86.7 261.4 85.4 257.9 85.4C254.2 85.4 250.8 86.7 247.7 89.4C244.6 92.1 242.3 95.5 240.9 99.9V136.7H227.8V74.7H239.8V87.2C242.3 82.9 245.5 79.5 249.5 77.2C253.5 74.9 258.1 73.7 263.3 73.7C268.5 73.7 272.6 75 275.5 77.7C278.5 80.4 280.3 83.7 281.1 87.8C283.8 83.2 287.1 79.7 291.1 77.3C295 74.9 299.6 73.7 304.7 73.7C308.4 73.7 311.4 74.4 313.9 75.7C316.4 77 318.3 78.9 319.6 81.2C321 83.5 321.9 86.2 322.5 89.2C323.1 92.2 323.4 95.5 323.4 98.8V136.6Z" fill="#004DF0"/>
<path d="M334 118.5C334 114.6 335.1 111.1 337.4 108.1C339.7 105.1 342.8 102.9 346.8 101.2C350.8 99.6 355.4 98.8 360.7 98.8C363.5 98.8 366.3 99 369.2 99.4C372.1 99.8 374.7 100.4 376.9 101.3V97.4C376.9 93.1 375.6 89.7 373 87.3C370.4 84.9 366.6 83.7 361.6 83.7C358.1 83.7 354.8 84.3 351.7 85.6C348.6 86.8 345.3 88.6 341.8 90.8L337.4 82C341.5 79.2 345.7 77.1 349.9 75.8C354.1 74.4 358.5 73.8 363.1 73.8C371.5 73.8 378.1 76 382.9 80.4C387.7 84.8 390.1 91 390.1 99V122C390.1 123.5 390.4 124.6 390.9 125.2C391.4 125.8 392.3 126.2 393.6 126.3V136.8C392.4 137 391.3 137.2 390.4 137.3C389.4 137.4 388.6 137.4 388 137.4C385.2 137.4 383.1 136.7 381.7 135.4C380.3 134 379.4 132.5 379.2 130.6L378.8 127C376.1 130.5 372.6 133.2 368.4 135.1C364.2 137 359.9 138 355.6 138C351.5 138 347.8 137.2 344.5 135.5C341.2 133.8 338.7 131.5 336.9 128.6C334.9 125.4 334 122.1 334 118.5ZM373.8 122.3C374.8 121.3 375.5 120.3 376.1 119.2C376.7 118.2 376.9 117.3 376.9 116.5V109.4C374.7 108.5 372.3 107.9 369.8 107.5C367.3 107.1 364.9 106.9 362.5 106.9C357.7 106.9 353.8 107.8 350.8 109.7C347.8 111.6 346.3 114.2 346.3 117.5C346.3 119.3 346.8 121 347.8 122.7C348.8 124.3 350.2 125.7 352.1 126.7C354 127.7 356.3 128.2 359.1 128.2C362 128.2 364.7 127.7 367.3 126.6C370.1 125.4 372.2 124 373.8 122.3Z" fill="#004DF0"/>
<path d="M440.2 133.6C439.1 134.2 437.7 134.8 436 135.4C434.3 136 432.4 136.6 430.3 137.1C428.2 137.6 426 137.8 423.8 137.8C421.1 137.8 418.6 137.3 416.3 136.4C414 135.4 412.1 133.9 410.7 131.8C409.3 129.7 408.6 127 408.6 123.6V84.8H400.4V74.6H408.6V54H421.7V74.6H435.3V84.8H421.7V119.5C421.9 121.6 422.6 123.2 423.8 124.3C425 125.3 426.6 125.8 428.4 125.8C430.2 125.8 432 125.5 433.7 124.8C435.4 124.2 436.6 123.6 437.4 123.2L440.2 133.6Z" fill="#004DF0"/>
<path d="M476.8 137.8C471.9 137.8 467.5 136.9 463.6 135.2C459.7 133.5 456.3 131.2 453.4 128.2C450.5 125.2 448.3 121.8 446.8 118C445.2 114.2 444.5 110.1 444.5 105.7C444.5 99.9 445.9 94.5 448.6 89.7C451.3 84.9 455.1 81 460 78C464.9 75 470.6 73.6 477.1 73.6C483.6 73.6 489.3 75.1 494 78C498.7 81 502.4 84.8 505.1 89.7C507.7 94.5 509 99.7 509 105.2C509 106.1 509 107 508.9 107.9C508.8 108.7 508.7 109.4 508.7 110H458.6C458.8 113.6 459.9 116.8 461.6 119.5C463.4 122.2 465.7 124.3 468.5 125.9C471.3 127.4 474.3 128.2 477.5 128.2C481 128.2 484.3 127.3 487.5 125.6C490.6 123.8 492.8 121.5 493.9 118.7L505.1 121.9C503.7 124.9 501.7 127.7 498.9 130.1C496.2 132.5 492.9 134.4 489.2 135.8C485.2 137.1 481.2 137.8 476.8 137.8ZM458 101.2H495.8C495.6 97.7 494.5 94.6 492.8 91.9C491 89.2 488.7 87.1 486 85.6C483.3 84.1 480.2 83.3 476.9 83.3C473.6 83.3 470.6 84.1 467.9 85.6C465.2 87.1 462.9 89.2 461.1 91.9C459.3 94.6 458.3 97.7 458 101.2Z" fill="#004DF0"/>
<path d="M156.8 241.6V166.4L118.3 225.2H113.6L75.1 166.4V241.6H68.1V154.2H75.1L115.9 216.7L156.7 154.2H163.7V241.6H156.8Z" fill="#004DF0"/>
<path d="M217.3 242.8C212.2 242.8 207.6 241.9 203.3 240.2C199 238.5 195.3 236.1 192.2 233C189.1 229.9 186.6 226.4 184.9 222.4C183.2 218.4 182.3 214.2 182.3 209.8C182.3 205.3 183.2 201.1 184.9 197.1C186.6 193.1 189.1 189.6 192.3 186.6C195.5 183.5 199.2 181.1 203.5 179.4C207.8 177.6 212.4 176.8 217.4 176.8C222.4 176.8 227 177.7 231.2 179.4C235.4 181.2 239.1 183.6 242.4 186.6C245.6 189.7 248.1 193.2 249.8 197.1C251.5 201.1 252.4 205.3 252.4 209.8C252.4 214.2 251.5 218.4 249.8 222.4C248.1 226.4 245.6 229.9 242.4 233C239.2 236.1 235.5 238.5 231.2 240.2C226.9 242 222.3 242.8 217.3 242.8ZM189.2 210.1C189.2 215.1 190.5 219.6 193 223.8C195.5 227.9 198.9 231.2 203.1 233.7C207.3 236.2 212 237.4 217.2 237.4C222.3 237.4 227.1 236.2 231.3 233.7C235.6 231.2 239 227.9 241.5 223.7C244 219.5 245.3 214.9 245.3 209.9C245.3 204.9 244 200.3 241.5 196.2C239 192 235.6 188.7 231.3 186.2C227 183.7 222.4 182.5 217.3 182.5C212.2 182.5 207.5 183.8 203.2 186.3C199 188.8 195.6 192.2 193 196.3C190.5 200.3 189.2 204.9 189.2 210.1Z" fill="#004DF0"/>
<path d="M303.3 242.8C297.7 242.8 292.5 241.5 287.6 238.8C282.7 236.1 278.9 232.8 276.2 228.8V241.6H269.9V151.8H276.8V191.8C280.2 187.4 284.2 183.8 288.9 181C293.5 178.2 298.9 176.8 305 176.8C310.1 176.8 314.7 177.7 318.7 179.6C322.7 181.5 326.1 184 329 187.2C331.8 190.4 334 193.9 335.5 197.9C337 201.8 337.8 205.9 337.8 210C337.8 214.3 336.9 218.5 335.2 222.4C333.5 226.4 331 229.9 327.9 232.9C324.8 236 321.1 238.4 317 240.1C312.7 241.9 308.2 242.8 303.3 242.8ZM301.9 237.3C306.1 237.3 310 236.5 313.5 235C317 233.5 320 231.4 322.5 228.8C325 226.2 327 223.2 328.4 220C329.8 216.7 330.5 213.4 330.5 210C330.5 205.2 329.3 200.7 327.1 196.5C324.8 192.3 321.6 188.9 317.5 186.3C313.4 183.7 308.6 182.4 303.2 182.4C299.2 182.4 295.4 183.2 292 184.8C288.6 186.4 285.6 188.5 283.1 191C280.6 193.5 278.4 196.3 276.7 199.3V220.4C277.1 222.8 278.1 225 279.7 227.1C281.4 229.2 283.4 231 286 232.5C288.5 234 291.2 235.2 294 236.1C296.8 236.8 299.5 237.3 301.9 237.3Z" fill="#004DF0"/>
<path d="M355.1 163.1V151.8H362V163.1H355.1ZM355.1 241.6V177.6H362V241.6H355.1Z" fill="#004DF0"/>
<path d="M473.4 242.8C468.3 242.8 463.7 241.9 459.3 240.2C455 238.4 451.2 236 448.1 233C444.9 229.9 442.4 226.4 440.7 222.3C438.9 218.3 438 214 438 209.5C438 203.5 439.5 198 442.5 193.1C445.5 188.2 449.7 184.3 455 181.3C460.3 178.3 466.3 176.8 472.9 176.8C479.7 176.8 485.7 178.3 491 181.3C496.2 184.3 500.4 188.3 503.5 193.3C506.6 198.2 508.1 203.7 508.1 209.6C508.1 210.1 508.1 210.6 508.1 211.1C508.1 211.6 508.1 212 508 212.3H445.1C445.5 217.1 447 221.5 449.6 225.4C452.3 229.3 455.7 232.4 459.9 234.6C464.1 236.8 468.7 238 473.6 238C478.6 238 483.2 236.9 487.7 234.6C492.1 232.3 495.2 229.3 496.9 225.7L503 227.2C501.6 230.2 499.4 232.9 496.5 235.3C493.5 237.7 490 239.5 486 240.9C482.1 242.1 477.9 242.8 473.4 242.8ZM444.9 207.4H501.6C501.2 202.4 499.8 198 497.2 194.2C494.6 190.4 491.2 187.3 487.1 185.1C482.9 182.9 478.3 181.8 473.2 181.8C468.1 181.8 463.6 182.9 459.4 185.1C455.3 187.3 451.9 190.3 449.3 194.2C446.7 198 445.3 202.4 444.9 207.4Z" fill="#004DF0"/>
<path d="M140.8 133.5L129.6 95.5L125.6 81.9L120.1 63.2L111.3 33.4C115.2 32 117.9 28.3 117.9 23.9C117.9 18.3 113.4 13.8 107.8 13.8C102.2 13.8 97.7 18.3 97.7 23.9C97.7 28.2 100.5 32 104.3 33.4L86.2 95.5L75 133.5C74.6 135 75.4 136.5 76.9 136.9C78.4 137.3 79.9 136.5 80.3 135L82 129.2L107.9 112.1L133.8 129.2L135.5 135C135.9 136.2 137 137 138.2 137C138.5 137 138.7 137 139 136.9C140.4 136.6 141.3 135 140.8 133.5ZM103.3 23.9C103.3 21.4 105.4 19.3 107.9 19.3C110.4 19.3 112.5 21.4 112.5 23.9C112.5 26.4 110.4 28.5 107.9 28.5C105.4 28.5 103.3 26.4 103.3 23.9ZM107.9 41.1L113.8 61.3H102L107.9 41.1ZM100.4 66.8H115.5L119.4 80H96.5L100.4 66.8ZM84.4 121.1L90.4 100.7L102.9 108.9L84.4 121.1ZM92.1 95.1L94.9 85.5H121L123.8 95.1L107.9 105.6L92.1 95.1ZM112.9 108.9L125.4 100.7L131.4 121.1L112.9 108.9Z" fill="#004DF0"/>
<path d="M96.1 11.8C97 10.9 97 9.49999 96.1 8.59999C95.2 7.69999 93.8 7.69999 92.9 8.59999C85.3 16.2 85.3 28.5 92.9 36.1C93.3 36.5 93.9 36.8 94.5 36.8C95.1 36.8 95.6 36.6 96.1 36.1C97 35.2 97 33.8 96.1 32.9C90.3 27.2 90.3 17.7 96.1 11.8Z" fill="#004DF0"/>
<path d="M88.1 3.79999C89 2.89999 89 1.49999 88.1 0.599988C87.2 -0.300012 85.8 -0.300012 84.9 0.599988C79.1 6.39999 75.9 14.2 75.9 22.4C75.9 30.6 79.1 38.4 84.9 44.2C85.3 44.6 85.9 44.9 86.5 44.9C87.1 44.9 87.6 44.7 88.1 44.2C89 43.3 89 41.9 88.1 41C77.8 30.8 77.8 14.1 88.1 3.79999Z" fill="#004DF0"/>
<path d="M119 11.8C118.1 10.9 118.1 9.49999 119 8.59999C119.9 7.69999 121.3 7.69999 122.2 8.59999C129.8 16.2 129.8 28.5 122.2 36.1C121.8 36.5 121.2 36.8 120.6 36.8C120 36.8 119.5 36.6 119 36.1C118.1 35.2 118.1 33.8 119 32.9C124.8 27.2 124.8 17.7 119 11.8Z" fill="#004DF0"/>
<path d="M127 3.79999C126.1 2.89999 126.1 1.49999 127 0.599988C127.9 -0.300012 129.3 -0.300012 130.2 0.599988C136 6.39999 139.2 14.2 139.2 22.4C139.2 30.6 136 38.4 130.2 44.2C129.8 44.6 129.2 44.9 128.6 44.9C128 44.9 127.5 44.7 127 44.2C126.1 43.3 126.1 41.9 127 41C137.3 30.8 137.3 14.1 127 3.79999Z" fill="#004DF0"/>
</g>
<defs>
<clipPath id="clip0">
<rect width="508.8" height="242.8" fill="white"/>
</clipPath>
</defs>
</svg>
